solid OpenSCAD_Model
  facet normal -1 0 0
    outer loop
      vertex 0 0 0
      vertex 0 16.8 12
      vertex 0 16.8 0
    endloop
  endfacet
  facet normal -1 -0 0
    outer loop
      vertex 0 16.8 12
      vertex 0 0 0
      vertex 0 0 12
    endloop
  endfacet
  facet normal 0 0 1
    outer loop
      vertex 108.5 16.8 12
      vertex 105.5 10.8 12
      vertex 108.5 0 12
    endloop
  endfacet
  facet normal 0 0 1
    outer loop
      vertex 108.5 16.8 12
      vertex 93 10.8 12
      vertex 105.5 10.8 12
    endloop
  endfacet
  facet normal 0 0 1
    outer loop
      vertex 93 10.8 12
      vertex 83 10.8 12
      vertex 93 6 12
    endloop
  endfacet
  facet normal 0 0 1
    outer loop
      vertex 108.5 16.8 12
      vertex 83 10.8 12
      vertex 93 10.8 12
    endloop
  endfacet
  facet normal 0 0 1
    outer loop
      vertex 108.5 16.8 12
      vertex 70.5 10.8 12
      vertex 83 10.8 12
    endloop
  endfacet
  facet normal 0 0 1
    outer loop
      vertex 70.5 10.8 12
      vertex 60.5 10.8 12
      vertex 70.5 6 12
    endloop
  endfacet
  facet normal 0 0 1
    outer loop
      vertex 108.5 16.8 12
      vertex 60.5 10.8 12
      vertex 70.5 10.8 12
    endloop
  endfacet
  facet normal 0 0 1
    outer loop
      vertex 108.5 16.8 12
      vertex 48 10.8 12
      vertex 60.5 10.8 12
    endloop
  endfacet
  facet normal 0 0 1
    outer loop
      vertex 48 10.8 12
      vertex 38 10.8 12
      vertex 48 6 12
    endloop
  endfacet
  facet normal -0 0 1
    outer loop
      vertex 0 16.8 12
      vertex 48 10.8 12
      vertex 108.5 16.8 12
    endloop
  endfacet
  facet normal 0 0 1
    outer loop
      vertex 48 10.8 12
      vertex 0 16.8 12
      vertex 38 10.8 12
    endloop
  endfacet
  facet normal 0 0 1
    outer loop
      vertex 25.5 10.8 12
      vertex 15.5 10.8 12
      vertex 25.5 6 12
    endloop
  endfacet
  facet normal 0 0 1
    outer loop
      vertex 38 10.8 12
      vertex 0 16.8 12
      vertex 25.5 10.8 12
    endloop
  endfacet
  facet normal 0 0 1
    outer loop
      vertex 25.5 10.8 12
      vertex 0 16.8 12
      vertex 15.5 10.8 12
    endloop
  endfacet
  facet normal 0 0 1
    outer loop
      vertex 3 10.8 12
      vertex 0 16.8 12
      vertex 3 6 12
    endloop
  endfacet
  facet normal 0 0 1
    outer loop
      vertex 15.5 10.8 12
      vertex 0 16.8 12
      vertex 3 10.8 12
    endloop
  endfacet
  facet normal -0 0 1
    outer loop
      vertex 105.5 6 12
      vertex 108.5 0 12
      vertex 105.5 10.8 12
    endloop
  endfacet
  facet normal -0 0 1
    outer loop
      vertex 93 6 12
      vertex 108.5 0 12
      vertex 105.5 6 12
    endloop
  endfacet
  facet normal 0 0 1
    outer loop
      vertex 83 6 12
      vertex 93 6 12
      vertex 83 10.8 12
    endloop
  endfacet
  facet normal -0 0 1
    outer loop
      vertex 83 6 12
      vertex 108.5 0 12
      vertex 93 6 12
    endloop
  endfacet
  facet normal -0 0 1
    outer loop
      vertex 70.5 6 12
      vertex 108.5 0 12
      vertex 83 6 12
    endloop
  endfacet
  facet normal 0 0 1
    outer loop
      vertex 60.5 6 12
      vertex 70.5 6 12
      vertex 60.5 10.8 12
    endloop
  endfacet
  facet normal -0 0 1
    outer loop
      vertex 60.5 6 12
      vertex 108.5 0 12
      vertex 70.5 6 12
    endloop
  endfacet
  facet normal -0 0 1
    outer loop
      vertex 48 6 12
      vertex 108.5 0 12
      vertex 60.5 6 12
    endloop
  endfacet
  facet normal 0 0 1
    outer loop
      vertex 38 6 12
      vertex 48 6 12
      vertex 38 10.8 12
    endloop
  endfacet
  facet normal 0 0 1
    outer loop
      vertex 0 0 12
      vertex 48 6 12
      vertex 38 6 12
    endloop
  endfacet
  facet normal 0 0 1
    outer loop
      vertex 0 0 12
      vertex 38 6 12
      vertex 25.5 6 12
    endloop
  endfacet
  facet normal 0 0 1
    outer loop
      vertex 15.5 6 12
      vertex 25.5 6 12
      vertex 15.5 10.8 12
    endloop
  endfacet
  facet normal 0 0 1
    outer loop
      vertex 0 0 12
      vertex 25.5 6 12
      vertex 15.5 6 12
    endloop
  endfacet
  facet normal 0 0 1
    outer loop
      vertex 0 0 12
      vertex 15.5 6 12
      vertex 3 6 12
    endloop
  endfacet
  facet normal 0 0 1
    outer loop
      vertex 48 6 12
      vertex 0 0 12
      vertex 108.5 0 12
    endloop
  endfacet
  facet normal 0 0 1
    outer loop
      vertex 0 0 12
      vertex 3 6 12
      vertex 0 16.8 12
    endloop
  endfacet
  facet normal 1 -0 0
    outer loop
      vertex 108.5 0 12
      vertex 108.5 16.8 0
      vertex 108.5 16.8 12
    endloop
  endfacet
  facet normal 1 0 0
    outer loop
      vertex 108.5 16.8 0
      vertex 108.5 0 12
      vertex 108.5 0 0
    endloop
  endfacet
  facet normal 0 0 -1
    outer loop
      vertex 0 0 0
      vertex 108.5 16.8 0
      vertex 108.5 0 0
    endloop
  endfacet
  facet normal -0 0 -1
    outer loop
      vertex 108.5 16.8 0
      vertex 0 0 0
      vertex 0 16.8 0
    endloop
  endfacet
  facet normal 0 -1 0
    outer loop
      vertex 0 0 0
      vertex 108.5 0 12
      vertex 0 0 12
    endloop
  endfacet
  facet normal 0 -1 -0
    outer loop
      vertex 108.5 0 12
      vertex 0 0 0
      vertex 108.5 0 0
    endloop
  endfacet
  facet normal 0 1 -0
    outer loop
      vertex 108.5 16.8 0
      vertex 0 16.8 12
      vertex 108.5 16.8 12
    endloop
  endfacet
  facet normal 0 1 0
    outer loop
      vertex 0 16.8 12
      vertex 108.5 16.8 0
      vertex 0 16.8 0
    endloop
  endfacet
  facet normal 1 -0 0
    outer loop
      vertex 3 6 12
      vertex 3 10.8 2
      vertex 3 10.8 12
    endloop
  endfacet
  facet normal 1 0 0
    outer loop
      vertex 3 10.8 2
      vertex 3 6 12
      vertex 3 6 2
    endloop
  endfacet
  facet normal -1 0 0
    outer loop
      vertex 15.5 6 2
      vertex 15.5 10.8 12
      vertex 15.5 10.8 2
    endloop
  endfacet
  facet normal -1 -0 0
    outer loop
      vertex 15.5 10.8 12
      vertex 15.5 6 2
      vertex 15.5 6 12
    endloop
  endfacet
  facet normal -0 0 1
    outer loop
      vertex 3 10.8 2
      vertex 15.5 6 2
      vertex 15.5 10.8 2
    endloop
  endfacet
  facet normal 0 0 1
    outer loop
      vertex 15.5 6 2
      vertex 3 10.8 2
      vertex 3 6 2
    endloop
  endfacet
  facet normal 0 1 -0
    outer loop
      vertex 15.5 6 2
      vertex 3 6 12
      vertex 15.5 6 12
    endloop
  endfacet
  facet normal 0 1 0
    outer loop
      vertex 3 6 12
      vertex 15.5 6 2
      vertex 3 6 2
    endloop
  endfacet
  facet normal 0 -1 0
    outer loop
      vertex 3 10.8 2
      vertex 15.5 10.8 12
      vertex 3 10.8 12
    endloop
  endfacet
  facet normal 0 -1 -0
    outer loop
      vertex 15.5 10.8 12
      vertex 3 10.8 2
      vertex 15.5 10.8 2
    endloop
  endfacet
  facet normal 1 -0 0
    outer loop
      vertex 25.5 6 12
      vertex 25.5 10.8 2
      vertex 25.5 10.8 12
    endloop
  endfacet
  facet normal 1 0 0
    outer loop
      vertex 25.5 10.8 2
      vertex 25.5 6 12
      vertex 25.5 6 2
    endloop
  endfacet
  facet normal -1 0 0
    outer loop
      vertex 38 6 2
      vertex 38 10.8 12
      vertex 38 10.8 2
    endloop
  endfacet
  facet normal -1 -0 0
    outer loop
      vertex 38 10.8 12
      vertex 38 6 2
      vertex 38 6 12
    endloop
  endfacet
  facet normal 0 -1 0
    outer loop
      vertex 25.5 10.8 2
      vertex 38 10.8 12
      vertex 25.5 10.8 12
    endloop
  endfacet
  facet normal 0 -1 -0
    outer loop
      vertex 38 10.8 12
      vertex 25.5 10.8 2
      vertex 38 10.8 2
    endloop
  endfacet
  facet normal -0 0 1
    outer loop
      vertex 25.5 10.8 2
      vertex 38 6 2
      vertex 38 10.8 2
    endloop
  endfacet
  facet normal 0 0 1
    outer loop
      vertex 38 6 2
      vertex 25.5 10.8 2
      vertex 25.5 6 2
    endloop
  endfacet
  facet normal 0 1 -0
    outer loop
      vertex 38 6 2
      vertex 25.5 6 12
      vertex 38 6 12
    endloop
  endfacet
  facet normal 0 1 0
    outer loop
      vertex 25.5 6 12
      vertex 38 6 2
      vertex 25.5 6 2
    endloop
  endfacet
  facet normal 1 -0 0
    outer loop
      vertex 48 6 12
      vertex 48 10.8 2
      vertex 48 10.8 12
    endloop
  endfacet
  facet normal 1 0 0
    outer loop
      vertex 48 10.8 2
      vertex 48 6 12
      vertex 48 6 2
    endloop
  endfacet
  facet normal -1 0 0
    outer loop
      vertex 60.5 6 2
      vertex 60.5 10.8 12
      vertex 60.5 10.8 2
    endloop
  endfacet
  facet normal -1 -0 0
    outer loop
      vertex 60.5 10.8 12
      vertex 60.5 6 2
      vertex 60.5 6 12
    endloop
  endfacet
  facet normal -0 0 1
    outer loop
      vertex 48 10.8 2
      vertex 60.5 6 2
      vertex 60.5 10.8 2
    endloop
  endfacet
  facet normal 0 0 1
    outer loop
      vertex 60.5 6 2
      vertex 48 10.8 2
      vertex 48 6 2
    endloop
  endfacet
  facet normal 0 1 -0
    outer loop
      vertex 60.5 6 2
      vertex 48 6 12
      vertex 60.5 6 12
    endloop
  endfacet
  facet normal 0 1 0
    outer loop
      vertex 48 6 12
      vertex 60.5 6 2
      vertex 48 6 2
    endloop
  endfacet
  facet normal 0 -1 0
    outer loop
      vertex 48 10.8 2
      vertex 60.5 10.8 12
      vertex 48 10.8 12
    endloop
  endfacet
  facet normal 0 -1 -0
    outer loop
      vertex 60.5 10.8 12
      vertex 48 10.8 2
      vertex 60.5 10.8 2
    endloop
  endfacet
  facet normal 1 -0 0
    outer loop
      vertex 70.5 6 12
      vertex 70.5 10.8 2
      vertex 70.5 10.8 12
    endloop
  endfacet
  facet normal 1 0 0
    outer loop
      vertex 70.5 10.8 2
      vertex 70.5 6 12
      vertex 70.5 6 2
    endloop
  endfacet
  facet normal -1 0 0
    outer loop
      vertex 83 6 2
      vertex 83 10.8 12
      vertex 83 10.8 2
    endloop
  endfacet
  facet normal -1 -0 0
    outer loop
      vertex 83 10.8 12
      vertex 83 6 2
      vertex 83 6 12
    endloop
  endfacet
  facet normal 0 -1 0
    outer loop
      vertex 70.5 10.8 2
      vertex 83 10.8 12
      vertex 70.5 10.8 12
    endloop
  endfacet
  facet normal 0 -1 -0
    outer loop
      vertex 83 10.8 12
      vertex 70.5 10.8 2
      vertex 83 10.8 2
    endloop
  endfacet
  facet normal -0 0 1
    outer loop
      vertex 70.5 10.8 2
      vertex 83 6 2
      vertex 83 10.8 2
    endloop
  endfacet
  facet normal 0 0 1
    outer loop
      vertex 83 6 2
      vertex 70.5 10.8 2
      vertex 70.5 6 2
    endloop
  endfacet
  facet normal 0 1 -0
    outer loop
      vertex 83 6 2
      vertex 70.5 6 12
      vertex 83 6 12
    endloop
  endfacet
  facet normal 0 1 0
    outer loop
      vertex 70.5 6 12
      vertex 83 6 2
      vertex 70.5 6 2
    endloop
  endfacet
  facet normal 1 -0 0
    outer loop
      vertex 93 6 12
      vertex 93 10.8 2
      vertex 93 10.8 12
    endloop
  endfacet
  facet normal 1 0 0
    outer loop
      vertex 93 10.8 2
      vertex 93 6 12
      vertex 93 6 2
    endloop
  endfacet
  facet normal -1 0 0
    outer loop
      vertex 105.5 6 2
      vertex 105.5 10.8 12
      vertex 105.5 10.8 2
    endloop
  endfacet
  facet normal -1 -0 0
    outer loop
      vertex 105.5 10.8 12
      vertex 105.5 6 2
      vertex 105.5 6 12
    endloop
  endfacet
  facet normal 0 -1 0
    outer loop
      vertex 93 10.8 2
      vertex 105.5 10.8 12
      vertex 93 10.8 12
    endloop
  endfacet
  facet normal 0 -1 -0
    outer loop
      vertex 105.5 10.8 12
      vertex 93 10.8 2
      vertex 105.5 10.8 2
    endloop
  endfacet
  facet normal -0 0 1
    outer loop
      vertex 93 10.8 2
      vertex 105.5 6 2
      vertex 105.5 10.8 2
    endloop
  endfacet
  facet normal 0 0 1
    outer loop
      vertex 105.5 6 2
      vertex 93 10.8 2
      vertex 93 6 2
    endloop
  endfacet
  facet normal 0 1 -0
    outer loop
      vertex 105.5 6 2
      vertex 93 6 12
      vertex 105.5 6 12
    endloop
  endfacet
  facet normal 0 1 0
    outer loop
      vertex 93 6 12
      vertex 105.5 6 2
      vertex 93 6 2
    endloop
  endfacet
endsolid OpenSCAD_Model
